<svg id="logo" xmlns="http://www.w3.org/2000/svg" width="137.722" height="28" viewBox="0 0 137.722 28">
  <path id="パス_5303" data-name="パス 5303" d="M225.921,131.1h-2.613a.583.583,0,0,0-.584.583v13.451l-8.979-13.77a.585.585,0,0,0-.489-.264h-2.64a.583.583,0,0,0-.583.583V151.6a.583.583,0,0,0,.583.583h2.64a.583.583,0,0,0,.583-.583V138.216l8.952,13.7a.585.585,0,0,0,.489.264h2.64a.583.583,0,0,0,.583-.583V131.687A.583.583,0,0,0,225.921,131.1Zm18.9,18.758a9.622,9.622,0,0,1-.123-1.49v-6.879a5.956,5.956,0,0,0-.46-2.411,4.881,4.881,0,0,0-1.288-1.758,5.352,5.352,0,0,0-1.956-1.046,8.553,8.553,0,0,0-5.015.091,6.882,6.882,0,0,0-2.025,1.109,5.206,5.206,0,0,0-1.329,1.578,3.9,3.9,0,0,0-.487,1.848.584.584,0,0,0,.584.584h2.544a.583.583,0,0,0,.584-.584,1.236,1.236,0,0,1,.161-.608,1.789,1.789,0,0,1,.493-.563,2.761,2.761,0,0,1,.832-.421,3.619,3.619,0,0,1,1.117-.163,2.653,2.653,0,0,1,1.929.618,2.265,2.265,0,0,1,.619,1.7v.579h-1.932a11.723,11.723,0,0,0-2.894.333,6.939,6.939,0,0,0-2.292,1.018,4.792,4.792,0,0,0-1.516,1.737,5.145,5.145,0,0,0-.528,2.365,4.767,4.767,0,0,0,.406,1.953,4.7,4.7,0,0,0,1.146,1.584,5.4,5.4,0,0,0,1.762,1.044,6.5,6.5,0,0,0,2.261.378,6.349,6.349,0,0,0,1.431-.158,6.054,6.054,0,0,0,1.263-.441,6.253,6.253,0,0,0,1.069-.647c.016-.011.031-.024.046-.036a3.072,3.072,0,0,0,.236.686.587.587,0,0,0,.523.322h2.653a.583.583,0,0,0,.583-.583v-.219a.58.58,0,0,0-.047-.231A5.375,5.375,0,0,1,244.819,149.863ZM241,147.315a2.959,2.959,0,0,1-.415.569,3.522,3.522,0,0,1-.733.6,4.256,4.256,0,0,1-.961.438,3.557,3.557,0,0,1-2.128,0,2.115,2.115,0,0,1-.7-.416,1.5,1.5,0,0,1-.391-.581,2.188,2.188,0,0,1-.139-.789,1.63,1.63,0,0,1,.883-1.539,6.289,6.289,0,0,1,3.06-.6H241ZM268.113,134.9a1.949,1.949,0,0,0,2.088-2.019,2.065,2.065,0,0,0-.533-1.43,2.264,2.264,0,0,0-3.106,0,2.085,2.085,0,0,0-.524,1.427,2.03,2.03,0,0,0,.53,1.42A2,2,0,0,0,268.113,134.9Zm-6.656,1.323h-2.585a.584.584,0,0,0-.555.4l-3.117,9.666-3.2-9.67a.584.584,0,0,0-.554-.4h-2.585a.583.583,0,0,0-.548.781l5.362,14.8a.582.582,0,0,0,.548.385h1.928a.584.584,0,0,0,.549-.386l5.306-14.8a.582.582,0,0,0-.549-.78Zm7.9,0h-2.53a.583.583,0,0,0-.584.584v14.8a.583.583,0,0,0,.584.583h2.53a.583.583,0,0,0,.584-.583V136.8A.583.583,0,0,0,269.358,136.219Z" transform="translate(-210.033 -130.01)" fill="#333"/>
  <path id="パス_5304" data-name="パス 5304" d="M295.394,131.44a2.085,2.085,0,0,0-.524,1.427,2.03,2.03,0,0,0,.53,1.42,2,2,0,0,0,1.544.6,1.949,1.949,0,0,0,2.088-2.019,2.065,2.065,0,0,0-.533-1.43A2.264,2.264,0,0,0,295.394,131.44Zm38.841,5.916a4.177,4.177,0,0,0-1.729-1.1,6.8,6.8,0,0,0-4.876.283,6.277,6.277,0,0,0-1.059.661v-6.62a.583.583,0,0,0-.584-.584h-2.53a.583.583,0,0,0-.584.584v21.007a.583.583,0,0,0,.584.583h2.53a.583.583,0,0,0,.584-.583V141.185a3.892,3.892,0,0,1,1.2-1.386,3.069,3.069,0,0,1,1.824-.549,3.594,3.594,0,0,1,1.1.151,1.634,1.634,0,0,1,.691.413,1.863,1.863,0,0,1,.428.759,4.4,4.4,0,0,1,.164,1.294v9.725a.583.583,0,0,0,.584.583h2.53a.583.583,0,0,0,.584-.583v-9.7a8.564,8.564,0,0,0-.365-2.651A4.96,4.96,0,0,0,334.235,137.356Zm14.132,11.729a.593.593,0,0,0-.489-.117c-.122.026-.3.059-.52.1a2.744,2.744,0,0,1-1.051,0,.579.579,0,0,1-.262-.126.775.775,0,0,1-.2-.308,1.974,1.974,0,0,1-.1-.71v-8.594h2.179a.583.583,0,0,0,.584-.583v-1.956a.583.583,0,0,0-.584-.584h-2.179v-3a.583.583,0,0,0-.583-.584h-2.531a.584.584,0,0,0-.584.584v3h-2.11a.583.583,0,0,0-.584.584v1.956a.583.583,0,0,0,.584.583h2.11v8.58a6.152,6.152,0,0,0,.308,2.065,3.851,3.851,0,0,0,.875,1.438,3.27,3.27,0,0,0,1.324.807,4.935,4.935,0,0,0,1.5.225,6.7,6.7,0,0,0,1.276-.107c.335-.067.608-.13.819-.188a.582.582,0,0,0,.43-.562V149.54A.582.582,0,0,0,348.367,149.085Zm-31.548-12.876h-2.311a.586.586,0,0,0-.583.54l-.028.378a5.579,5.579,0,0,0-1.041-.644,6.586,6.586,0,0,0-5.4.061,5.946,5.946,0,0,0-2.04,1.7,7.8,7.8,0,0,0-1.259,2.571,11.691,11.691,0,0,0-.427,3.247v.287a11.081,11.081,0,0,0,.435,3.169,8.126,8.126,0,0,0,1.262,2.565,6.047,6.047,0,0,0,2.029,1.732,6.513,6.513,0,0,0,5.293.124,5.49,5.49,0,0,0,.938-.527,4.269,4.269,0,0,1-.237,1.48,2.787,2.787,0,0,1-.65,1.026,2.664,2.664,0,0,1-1.019.624,4.483,4.483,0,0,1-2.326.128,3.947,3.947,0,0,1-.88-.291,4.764,4.764,0,0,1-.88-.547,5.437,5.437,0,0,1-.861-.864.585.585,0,0,0-.445-.216.568.568,0,0,0-.45.2l-1.313,1.518a.585.585,0,0,0-.042.71,5.328,5.328,0,0,0,1.337,1.365,7.272,7.272,0,0,0,1.581.853,8.745,8.745,0,0,0,3.036.594,8.122,8.122,0,0,0,2.74-.444,6.2,6.2,0,0,0,2.187-1.321A5.941,5.941,0,0,0,316.9,154.1a7.565,7.565,0,0,0,.5-2.823V136.793A.584.584,0,0,0,316.819,136.209ZM313.692,147.4a4.319,4.319,0,0,1-.44.649,2.978,2.978,0,0,1-.634.57,3.089,3.089,0,0,1-.817.378,3.539,3.539,0,0,1-2.514-.207,2.916,2.916,0,0,1-1.013-.96,4.72,4.72,0,0,1-.617-1.516,8.7,8.7,0,0,1-.211-1.955v-.287a8.693,8.693,0,0,1,.211-1.954,4.763,4.763,0,0,1,.625-1.531,2.994,2.994,0,0,1,1.021-.982,2.916,2.916,0,0,1,1.484-.352,3.621,3.621,0,0,1,1.024.133,2.966,2.966,0,0,1,.806.37,3.015,3.015,0,0,1,.636.568,4.537,4.537,0,0,1,.438.618Zm-23.119,1.463H281.72V131.677a.583.583,0,0,0-.584-.583H278.5a.583.583,0,0,0-.584.583v19.914a.583.583,0,0,0,.584.583h12.076a.583.583,0,0,0,.584-.583v-2.147A.583.583,0,0,0,290.573,148.86Zm7.617-12.651h-2.53a.583.583,0,0,0-.584.584v14.8a.583.583,0,0,0,.584.583h2.53a.583.583,0,0,0,.584-.583v-14.8A.583.583,0,0,0,298.189,136.209Z" transform="translate(-210.862 -130)" fill="#333"/>
</svg>
